<svg version="1.2" xmlns="http://www.w3.org/2000/svg" viewBox="0 0 517 109" width="517" height="109">
	<title>Highlight-Logo-svg</title>
	<style>
		.s0 { fill: #ffce2e } 
		.s1 { fill: #000000 } 
		.s2 { fill: #ffcd2c } 
	</style>
	<g id="Layer_2">
		<g id="Layer_1-2">
			<path id="Layer" class="s0" d="m48 0v27.1h-21.4v-27.1h-26.6v4.9h21.7v27.1h31.2v-27.1h21.7v-4.9zm4.8 90v-41.2h-31.1v41.2h-21.7v4.8h26.6v-41.1h21.4v41.1h26.6v-4.8z"/>
			<path id="Layer" fill-rule="evenodd" class="s0" d="m43.2 61.4v47l-21.5-13.8v-45.8zm-16.6 31.7l12.5 7.7v-37l-12.5-7.2z"/>
			<path id="Layer" class="s0" d="m35.9 78.4c-0.6 0-1 0.6-1 1.3 0 0.7 0.4 1.3 1 1.3 0.5 0 1-0.6 1-1.3 0-0.7-0.5-1.3-1-1.3z"/>
			<path id="Layer" class="s1" d="m124.8 30.8v28.4h-5.4v-12.4h-11.8v12.4h-5.5v-28.4h5.5v11.5h11.8v-11.5z"/>
			<path id="Layer" class="s1" d="m131 30.8h5.4v28.4h-5.4z"/>
			<path id="Layer" class="s1" d="m164.1 42.7v13q-1.2 1-2.4 1.7-1.3 0.8-2.7 1.2-1.4 0.5-2.9 0.8-1.4 0.2-2.9 0.2c-7.5 0-12-5.4-12-14.5 0-9.2 4.6-14.7 12.3-14.7q1.4 0 2.7 0.3 1.3 0.3 2.5 0.9 1.2 0.5 2.3 1.3 1.1 0.8 2 1.8l-3.6 2.8q-0.6-0.5-1.3-1-0.6-0.5-1.4-0.8-0.7-0.3-1.5-0.5-0.8-0.2-1.6-0.2c-4.2 0-6.6 3.7-6.6 9.9 0 6.3 2.6 10 6.9 10q0.6 0 1.2-0.1 0.7-0.1 1.3-0.3 0.6-0.1 1.1-0.4 0.6-0.3 1.1-0.6v-6.3h-4.6v-4.5z"/>
			<path id="Layer" class="s1" d="m191.8 30.8l-0.1 28.4h-5.4v-12.4h-11.8v12.4h-5.5v-28.4h5.4v11.5h11.9v-11.5z"/>
			<path id="Layer" class="s1" d="m216.4 54.7v4.5h-18.5v-28.4h5.5v23.9z"/>
			<path id="Layer" class="s1" d="m220 30.8h5.4v28.4h-5.4z"/>
			<path id="Layer" class="s1" d="m253.1 42.7v13q-1.1 1-2.4 1.7-1.3 0.8-2.7 1.2-1.4 0.5-2.8 0.8-1.5 0.2-3 0.2c-7.5 0-12-5.4-12-14.5 0-9.2 4.6-14.7 12.4-14.7q1.3 0 2.6 0.3 1.3 0.3 2.5 0.9 1.2 0.5 2.3 1.3 1.1 0.8 2 1.8l-3.6 2.8q-0.6-0.5-1.2-1-0.7-0.4-1.5-0.8-0.7-0.3-1.5-0.5-0.8-0.2-1.6-0.2c-4.1 0-6.6 3.7-6.6 9.9 0 6.3 2.6 10 6.9 10q0.7 0 1.3-0.1 0.6-0.1 1.2-0.3 0.6-0.1 1.2-0.4 0.5-0.3 1.1-0.6v-6.3h-4.7v-4.5z"/>
			<path id="Layer" class="s1" d="m280.8 30.8v28.4h-5.5v-12.4h-11.8v12.4h-5.4v-28.4h5.4v11.5h11.8v-11.5z"/>
			<path id="Layer" class="s1" d="m306.6 35.3h-8.4v23.9h-5.5v-23.9h-8.3v-4.5h22.2z"/>
			<path id="Layer" class="s1" d="m337.3 32.6h-9.9v26.6h-2.1v-26.6h-10v-1.8h22z"/>
			<path id="Layer" fill-rule="evenodd" class="s1" d="m352.5 46.9h-7.8v12.3h-2.1v-28.4h11.3c5.9 0 9.3 3 9.3 8.1 0 4.7-3 7.6-8.3 8l9 12.2h-2.5zm-7.8-1.8h9c4.6 0 7.3-2.3 7.3-6.2 0-3.9-2.7-6.2-7.3-6.2h-9z"/>
			<path id="Layer" fill-rule="evenodd" class="s1" d="m386.7 51.4h-14.6l-3.2 7.8h-2.3l11.9-28.4h1.9l11.8 28.4h-2.3zm-0.8-1.9l-6.5-15.9-6.5 15.9z"/>
			<path id="Layer" fill-rule="evenodd" class="s1" d="m418.9 45c0 8.9-5.4 14.2-14.7 14.2h-6.7v-28.4h6.7c9.3 0 14.7 5.3 14.7 14.2zm-2.3 0c0-7.8-4.7-12.4-12.8-12.4h-4.2v24.7h4.2c8.1 0 12.9-4.5 12.9-12.3z"/>
			<path id="Layer" class="s1" d="m426 30.8h2.1v28.4h-2.1z"/>
			<path id="Layer" class="s1" d="m437 30.8h2.3l18 25.2v-25.2h2v28.4h-2.3l-18-25.2v25.2h-2z"/>
			<path id="Layer" class="s1" d="m488.9 44v12.3q-1.1 0.7-2.3 1.3-1.3 0.6-2.6 1.1-1.3 0.4-2.6 0.6-1.4 0.2-2.7 0.3c-7.7 0-12.3-5.5-12.3-14.7 0-9.2 4.7-14.5 12.6-14.5q1.2 0 2.4 0.2 1.2 0.2 2.3 0.6 1.2 0.4 2.2 1.1 1 0.6 2 1.4l-1.5 1.1q-0.8-0.6-1.7-1.1-0.8-0.5-1.8-0.8-0.9-0.3-1.9-0.5-1-0.1-2-0.2c-6.5 0-10.3 4.7-10.3 12.7 0 8 3.7 12.8 10 12.8q1.1 0 2.2-0.2 1-0.1 2-0.4 1.1-0.3 2-0.8 1-0.4 1.9-1v-9.4h-7.2v-1.9z"/>
			<path id="Layer" class="s1" d="m493.8 56.2l1.1-1.7q1 0.8 2.2 1.4 1.1 0.5 2.3 0.9 1.2 0.5 2.4 0.7 1.3 0.2 2.5 0.2c5.2 0 8.2-2.1 8.2-5.7 0-8.6-18.1-4.5-18.1-14.4 0-4.6 3.7-7.2 10-7.2q1.2 0 2.4 0.2 1.2 0.1 2.4 0.5 1.2 0.3 2.3 0.8 1.2 0.5 2.2 1.1l-1.1 1.6q-0.9-0.5-1.9-0.9-1-0.5-2.1-0.8-1-0.3-2.1-0.5-1-0.1-2.1-0.2c-4.9 0-7.8 2-7.8 5.3 0 8 18.1 3.9 18.1 14.5 0 4.7-3.8 7.6-10.3 7.6q-1.4 0-2.8-0.3-1.4-0.2-2.8-0.6-1.3-0.4-2.6-1.1-1.3-0.6-2.4-1.4z"/>
			<path id="Layer" class="s1" d="m325.1 69h0.7l2.3 7.9 2.2-7.7h0.6l2.2 7.7 2.3-7.9h0.7l-2.7 8.9h-0.7l-2.1-7.6-2.1 7.6h-0.8z"/>
			<path id="Layer" fill-rule="evenodd" class="s1" d="m344.3 76.7l0.3 0.5q-0.3 0.2-0.6 0.3-0.3 0.2-0.6 0.3-0.3 0.1-0.6 0.2-0.3 0-0.7 0-0.6 0.1-1.2-0.2-0.6-0.2-1.1-0.7-0.5-0.4-0.7-1.1-0.2-0.6-0.1-1.2-0.1-0.7 0.2-1.3 0.2-0.7 0.7-1.1 0.5-0.5 1.1-0.7 0.6-0.2 1.3-0.2c1.5 0 2.4 0.7 2.4 2 0 1.3-1 1.9-2.8 1.9q-0.3 0-0.6 0-0.3 0-0.5-0.1-0.3-0.1-0.6-0.1-0.3-0.1-0.5-0.2-0.1 0.5 0.1 1 0.2 0.4 0.5 0.8 0.4 0.4 0.9 0.5 0.5 0.2 1 0.2 0.2 0 0.5-0.1 0.3 0 0.6-0.1 0.2-0.1 0.5-0.3 0.2-0.1 0.5-0.3zm-4.6-2.2q0.2 0.1 0.5 0.2 0.3 0 0.6 0.1 0.2 0 0.5 0.1 0.3 0 0.6 0c1.4 0 2.2-0.5 2.2-1.4 0-0.9-0.7-1.4-1.8-1.4q-0.5-0.1-1 0.1-0.5 0.2-0.9 0.5-0.3 0.4-0.5 0.8-0.2 0.5-0.2 1z"/>
			<path id="Layer" class="s1" d="m353.6 77l0.3-0.5q0.3 0.2 0.7 0.4 0.4 0.2 0.7 0.3 0.4 0.1 0.8 0.2 0.4 0.1 0.8 0.1c1.6 0 2.6-0.7 2.6-1.8 0-2.7-5.7-1.4-5.7-4.5 0-1.4 1.2-2.3 3.1-2.3q0.4 0 0.8 0.1 0.4 0.1 0.7 0.2 0.4 0.1 0.8 0.2 0.3 0.2 0.6 0.4l-0.3 0.5q-0.3-0.2-0.6-0.3-0.3-0.2-0.6-0.3-0.4-0.1-0.7-0.1-0.3-0.1-0.7-0.1c-1.5 0-2.4 0.6-2.4 1.7 0 2.5 5.7 1.2 5.7 4.5 0 1.5-1.2 2.4-3.3 2.4q-0.4 0-0.9-0.1-0.4-0.1-0.8-0.2-0.5-0.1-0.9-0.3-0.4-0.2-0.7-0.5z"/>
			<path id="Layer" class="s1" d="m367.9 77.7q-0.3 0-0.5 0.1-0.2 0.1-0.4 0.1-0.2 0.1-0.4 0.1-0.2 0-0.4 0c-1.2 0-1.9-0.6-1.9-1.5v-4.3h-1.4v-0.6h1.4v-1.4l0.6-0.2v1.6h2.6v0.6h-2.6v4.2c0 0.6 0.5 1.1 1.3 1.1q0.2 0 0.4-0.1 0.2 0 0.4 0 0.1-0.1 0.3-0.1 0.2-0.1 0.4-0.1z"/>
			<path id="Layer" class="s1" d="m375.4 71.7l-0.1 0.6q-0.1 0-0.2-0.1-0.2 0-0.3 0-0.1-0.1-0.2-0.1-0.2 0-0.3 0-0.3 0-0.6 0.1-0.3 0-0.6 0.1-0.3 0.1-0.6 0.3-0.3 0.1-0.5 0.3v5h-0.7v-4.9c0-0.4-0.3-0.8-1-1l0.3-0.5q0.2 0.1 0.3 0.1 0.2 0.1 0.4 0.2 0.1 0.2 0.3 0.3 0.1 0.1 0.2 0.3 0.3-0.2 0.6-0.4 0.3-0.1 0.7-0.3 0.3-0.1 0.6-0.1 0.4-0.1 0.7-0.1 0.1 0 0.3 0 0.1 0 0.2 0.1 0.2 0 0.3 0 0.1 0 0.2 0.1z"/>
			<path id="Layer" class="s1" d="m378.8 69.5q0-0.1 0-0.2 0-0.1 0.1-0.2 0.1 0 0.1-0.1 0.1 0 0.2 0 0.1 0 0.2 0.1 0.1 0 0.1 0 0.1 0.1 0.1 0.2 0 0.1 0 0.2 0 0 0 0.1 0 0.1-0.1 0.2 0 0-0.1 0-0.1 0.1-0.2 0.1-0.1 0-0.2-0.1 0 0-0.1 0-0.1-0.1-0.1-0.2 0-0.1 0-0.1zm0.1 2.1h0.6v6.3h-0.6z"/>
			<path id="Layer" class="s1" d="m383.2 71.6h0.7l2.3 5.6 2.4-5.6h0.7l-2.7 6.3h-0.7z"/>
			<path id="Layer" fill-rule="evenodd" class="s1" d="m397.6 76.7l0.3 0.5q-0.3 0.2-0.6 0.3-0.2 0.2-0.6 0.3-0.3 0.1-0.6 0.2-0.3 0-0.7 0-0.6 0.1-1.2-0.2-0.6-0.2-1.1-0.7-0.4-0.4-0.6-1.1-0.2-0.6-0.2-1.2 0-0.7 0.2-1.3 0.2-0.7 0.7-1.1 0.5-0.5 1.1-0.7 0.6-0.2 1.3-0.2c1.6 0 2.5 0.7 2.5 2 0 1.3-1 1.9-2.9 1.9q-0.2 0-0.5 0-0.3 0-0.6-0.1-0.3 0-0.6-0.1-0.2-0.1-0.5-0.2 0 0.5 0.1 1 0.2 0.5 0.6 0.8 0.3 0.4 0.8 0.6 0.5 0.1 1 0.1 0.3 0 0.6-0.1 0.2 0 0.5-0.1 0.3-0.1 0.5-0.3 0.3-0.1 0.5-0.3zm-4.6-2.2q0.3 0.1 0.5 0.2 0.3 0 0.6 0.1 0.2 0 0.5 0.1 0.3 0 0.6 0c1.4 0 2.2-0.5 2.2-1.4 0-0.9-0.7-1.4-1.8-1.4q-0.5-0.1-1 0.1-0.5 0.2-0.9 0.5-0.3 0.4-0.5 0.8-0.2 0.5-0.2 1z"/>
			<path id="Layer" class="s1" d="m408.3 70.2v1.4h2.7v0.6h-2.6v5.7h-0.7v-5.7h-1.3v-0.6h1.3v-1.5q0-0.3 0.2-0.7 0.1-0.3 0.4-0.6 0.2-0.3 0.6-0.4 0.4-0.1 0.7-0.1 0.3 0.1 0.5 0.1 0.2 0 0.4 0.1 0.2 0 0.4 0.1 0.2 0 0.4 0.1l-0.2 0.5q-0.1-0.1-0.3-0.1-0.2-0.1-0.4-0.1-0.1-0.1-0.3-0.1-0.2 0-0.4 0-0.3 0-0.5 0-0.3 0.1-0.5 0.3-0.2 0.2-0.3 0.5-0.1 0.2-0.1 0.5z"/>
			<path id="Layer" fill-rule="evenodd" class="s1" d="m413.6 74.8c0-2 1.1-3.3 3-3.3 1.8 0 3 1.2 3 3.3 0 2-1.1 3.2-3 3.2-1.9 0-3-1.2-3-3.2zm5.3 0c0-1.7-0.9-2.7-2.3-2.7-1.4 0-2.3 1-2.3 2.7 0 1.7 0.8 2.7 2.3 2.7 1.4 0 2.3-1 2.3-2.7z"/>
			<path id="Layer" class="s1" d="m427.8 71.7l-0.1 0.6q-0.1 0-0.2-0.1-0.2 0-0.3 0-0.1-0.1-0.2-0.1-0.2 0-0.3 0-0.3 0-0.6 0.1-0.3 0-0.6 0.1-0.3 0.1-0.6 0.2-0.3 0.2-0.5 0.4v5h-0.7v-4.9c0-0.4-0.3-0.8-1-1l0.3-0.5q0.2 0.1 0.4 0.1 0.1 0.1 0.3 0.2 0.2 0.2 0.3 0.3 0.1 0.1 0.2 0.3 0.3-0.2 0.6-0.4 0.3-0.1 0.7-0.3 0.3-0.1 0.6-0.1 0.4-0.1 0.7-0.1 0.2 0 0.3 0 0.1 0 0.2 0.1 0.2 0 0.3 0 0.1 0 0.2 0.1z"/>
			<path id="Layer" class="s1" d="m442.2 77.3v0.6h-5.7v-8.9h5.6v0.6h-5v3.4h4.3v0.6h-4.3v3.7z"/>
			<path id="Layer" class="s1" d="m450.3 77.9l-2.2-2.8-2.3 2.8h-0.7l2.6-3.2-2.4-3.1h0.7l2.1 2.7 2-2.7h0.8l-2.4 3.1 2.6 3.2z"/>
			<path id="Layer" class="s1" d="m454 74.8c0-2 1.1-3.3 3.1-3.3q0.2 0 0.5 0.1 0.3 0 0.5 0.1 0.3 0.1 0.5 0.3 0.3 0.1 0.5 0.3l-0.4 0.4q-0.2-0.2-0.4-0.3-0.2-0.1-0.4-0.2-0.2 0-0.4-0.1-0.2 0-0.4 0c-1.6 0-2.5 1-2.5 2.7 0 1.7 0.9 2.7 2.4 2.7q0.3 0 0.5-0.1 0.3 0 0.5-0.1 0.2-0.1 0.4-0.2 0.2-0.2 0.4-0.3l0.4 0.4q-0.2 0.2-0.5 0.3-0.2 0.2-0.5 0.3-0.3 0.1-0.6 0.2-0.3 0-0.6 0c-1.8 0-3-1.2-3-3.2z"/>
			<path id="Layer" fill-rule="evenodd" class="s1" d="m467.7 76.7l0.3 0.5q-0.2 0.2-0.5 0.3-0.3 0.2-0.6 0.3-0.3 0.1-0.7 0.2-0.3 0-0.6 0-0.7 0.1-1.3-0.2-0.6-0.2-1.1-0.7-0.4-0.4-0.6-1.1-0.2-0.6-0.1-1.2-0.1-0.7 0.1-1.3 0.3-0.7 0.7-1.1 0.5-0.5 1.1-0.7 0.7-0.2 1.3-0.2c1.6 0 2.5 0.7 2.5 2 0 1.3-1 1.9-2.8 1.9q-0.3 0-0.6 0-0.3 0-0.6-0.1-0.3 0-0.5-0.1-0.3-0.1-0.6-0.2 0 0.5 0.2 1 0.1 0.4 0.5 0.8 0.4 0.4 0.8 0.5 0.5 0.2 1 0.2 0.3 0 0.6-0.1 0.3 0 0.5-0.1 0.3-0.1 0.5-0.3 0.3-0.1 0.5-0.3zm-4.6-2.2q0.3 0.1 0.6 0.2 0.2 0 0.5 0.1 0.3 0 0.5 0.1 0.3 0 0.6 0c1.4 0 2.2-0.5 2.2-1.4 0-0.9-0.6-1.4-1.8-1.4q-0.5-0.1-1 0.1-0.5 0.2-0.8 0.5-0.4 0.4-0.6 0.8-0.2 0.5-0.2 1z"/>
			<path id="Layer" class="s1" d="m472.2 76.7v-8.2h0.6v8c0 0.6 0.4 1 1.1 1q0.1 0 0.1 0 0.1 0 0.1 0 0 0 0.1 0 0 0 0.1 0v0.5q0 0-0.1 0-0.1 0-0.1 0-0.1 0-0.2 0.1 0 0-0.1 0c-1-0.1-1.6-0.6-1.6-1.4z"/>
			<path id="Layer" class="s1" d="m477.8 76.7v-8.2h0.6v8c0 0.6 0.4 1 1.1 1q0.1 0 0.1 0 0.1 0 0.1 0 0.1 0 0.1 0 0 0 0.1 0l0.1 0.5q-0.1 0-0.2 0 0 0-0.1 0-0.1 0-0.1 0.1-0.1 0-0.2 0c-1-0.1-1.6-0.6-1.6-1.4z"/>
			<path id="Layer" fill-rule="evenodd" class="s1" d="m488.1 76.7l0.3 0.5q-0.2 0.2-0.5 0.3-0.3 0.2-0.6 0.3-0.3 0.1-0.6 0.2-0.4 0-0.7 0-0.7 0-1.3-0.2-0.6-0.2-1-0.7-0.5-0.5-0.7-1.1-0.2-0.6-0.1-1.2-0.1-0.7 0.2-1.3 0.2-0.7 0.7-1.1 0.4-0.5 1.1-0.7 0.6-0.3 1.2-0.2c1.6 0 2.5 0.7 2.5 2 0 1.3-1 1.9-2.8 1.9q-0.3 0-0.6 0-0.3-0.1-0.6-0.1-0.2-0.1-0.5-0.1-0.3-0.1-0.6-0.2 0 0.5 0.2 1 0.2 0.4 0.5 0.8 0.4 0.4 0.8 0.5 0.5 0.2 1 0.2 0.3 0 0.6-0.1 0.3 0 0.5-0.1 0.3-0.1 0.5-0.3 0.3-0.1 0.5-0.3zm-4.6-2.2q0.3 0.1 0.6 0.2 0.2 0 0.5 0.1 0.3 0 0.5 0.1 0.3 0 0.6 0c1.4 0 2.2-0.5 2.2-1.4 0-0.9-0.6-1.4-1.8-1.4q-0.5-0.1-1 0.1-0.5 0.2-0.8 0.5-0.4 0.4-0.6 0.8-0.2 0.5-0.2 1z"/>
			<path id="Layer" class="s1" d="m498 73.3v4.6h-0.6v-4.4c0-0.9-0.7-1.4-1.7-1.4q-0.4 0-0.7 0-0.3 0.1-0.6 0.2-0.3 0.1-0.6 0.2-0.2 0.1-0.5 0.3v5.1h-0.6v-4.9c0-0.4-0.4-0.8-1-1l0.2-0.5q0.2 0.1 0.4 0.1 0.2 0.1 0.3 0.2 0.2 0.2 0.3 0.3 0.2 0.1 0.3 0.3 0.3-0.2 0.6-0.4 0.3-0.1 0.6-0.3 0.4-0.1 0.7-0.1 0.3-0.1 0.7-0.1c1.4 0 2.2 0.7 2.2 1.8z"/>
			<path id="Layer" class="s1" d="m502 74.8c0-2 1.1-3.3 3.1-3.3q0.2 0 0.5 0.1 0.3 0 0.5 0.1 0.3 0.1 0.5 0.3 0.3 0.1 0.5 0.3l-0.4 0.4q-0.2-0.2-0.4-0.3-0.2-0.1-0.4-0.2-0.2 0-0.4-0.1-0.2 0-0.4 0c-1.6 0-2.5 1-2.5 2.7 0 1.7 0.9 2.7 2.4 2.7q0.3 0 0.5-0.1 0.3 0 0.5-0.1 0.2-0.1 0.4-0.2 0.2-0.2 0.4-0.3l0.4 0.4q-0.2 0.2-0.5 0.3-0.2 0.2-0.5 0.3-0.3 0.1-0.6 0.2-0.3 0-0.6 0c-1.8 0-3-1.2-3-3.2z"/>
			<path id="Layer" fill-rule="evenodd" class="s1" d="m515.7 76.7l0.3 0.5q-0.2 0.2-0.5 0.3-0.3 0.2-0.6 0.3-0.4 0.1-0.7 0.2-0.3 0-0.6 0-0.7 0.1-1.3-0.2-0.6-0.2-1.1-0.7-0.4-0.4-0.6-1.1-0.2-0.6-0.2-1.2 0-0.7 0.2-1.3 0.2-0.7 0.7-1.1 0.5-0.5 1.1-0.7 0.7-0.2 1.3-0.2c1.6 0 2.5 0.7 2.5 2 0 1.3-1 1.9-2.9 1.9q-0.2 0-0.5 0-0.3 0-0.6-0.1-0.3 0-0.6-0.1-0.2-0.1-0.5-0.2 0 0.5 0.1 1 0.2 0.5 0.6 0.8 0.3 0.4 0.8 0.6 0.5 0.1 1 0.1 0.3 0 0.6-0.1 0.2 0 0.5-0.1 0.3-0.1 0.5-0.3 0.3-0.1 0.5-0.3zm-4.6-2.2q0.3 0.1 0.5 0.2 0.3 0 0.6 0.1 0.3 0 0.5 0.1 0.3 0 0.6 0c1.4 0 2.2-0.5 2.2-1.4 0-0.9-0.6-1.4-1.8-1.4q-0.5-0.1-1 0.1-0.5 0.2-0.8 0.5-0.4 0.4-0.6 0.8-0.2 0.5-0.2 1z"/>
			<path id="Layer" class="s2" d="m102 71.8h213.6v3.8h-213.6z"/>
		</g>
	</g>
</svg>