<svg xmlns="http://www.w3.org/2000/svg" viewBox="0 0 516.17 108.39"><defs><style>.cls-1{fill:#ffce2e;}.cls-2{fill:#fff;}.cls-3{fill:#ffcd2c;}</style></defs><g id="Layer_2" data-name="Layer 2"><g id="Layer_1-2" data-name="Layer 1"><path class="cls-1" d="M48,0V27.12H26.57V0H0V4.86H21.72V32H52.86V4.86H74.58V0Zm4.86,90V48.84H21.72V90H0v4.85H26.57V53.7H48V94.84H74.58V90Z"/><path class="cls-1" d="M26.57,56.52,39,63.75v37L26.57,93Zm-4.85-7.68V94.56l21.44,13.83v-47L21.72,48.84Z"/><path class="cls-1" d="M35.86,78.42c-.53,0-1,.58-1,1.29s.42,1.29,1,1.29,1-.58,1-1.29-.42-1.29-1-1.29Z"/><path class="cls-2" d="M124.82,30.76V59.2h-5.45V46.81H107.56V59.2h-5.45V30.76h5.45V42.31h11.81V30.76Z"/><path class="cls-2" d="M131,30.76h5.45V59.2H131Z"/><path class="cls-2" d="M164.08,42.73v13a16.71,16.71,0,0,1-10.9,3.89c-7.51,0-12-5.41-12-14.56s4.57-14.64,12.35-14.64A13,13,0,0,1,163,34.69l-3.62,2.86A8.55,8.55,0,0,0,153.6,35c-4.16,0-6.6,3.7-6.6,9.95s2.56,10,6.9,10a9.54,9.54,0,0,0,4.73-1.45V47.23H154v-4.5Z"/><path class="cls-2" d="M191.75,30.76V59.2H186.3V46.81H174.48V59.2H169V30.76h5.45V42.31H186.3V30.76Z"/><path class="cls-2" d="M216.41,54.66V59.2H197.92V30.76h5.45v23.9Z"/><path class="cls-2" d="M220,30.76h5.45V59.2H220Z"/><path class="cls-2" d="M253.11,42.73v13a16.71,16.71,0,0,1-10.9,3.89c-7.51,0-12-5.41-12-14.56s4.57-14.64,12.35-14.64A13,13,0,0,1,252,34.69l-3.62,2.86A8.53,8.53,0,0,0,242.63,35c-4.16,0-6.6,3.7-6.6,9.95s2.56,10,6.9,10a9.54,9.54,0,0,0,4.73-1.45V47.23H243v-4.5Z"/><path class="cls-2" d="M280.78,30.76V59.2h-5.45V46.81H263.51V59.2h-5.45V30.76h5.45V42.31h11.82V30.76Z"/><path class="cls-2" d="M306.58,35.26H298.2V59.2h-5.45V35.26h-8.39v-4.5h22.22Z"/><path class="cls-2" d="M337.3,32.63h-9.91V59.2h-2.13V32.63h-9.91V30.76H337.3Z"/><path class="cls-2" d="M352.51,46.89h-7.82V59.2h-2.13V30.76h11.36c5.87,0,9.3,3,9.3,8.09,0,4.8-3.05,7.69-8.35,8l9,12.27h-2.48Zm-7.82-1.83h9c4.61,0,7.32-2.29,7.32-6.21s-2.71-6.22-7.32-6.22h-9Z"/><path class="cls-2" d="M386.69,51.42H372.13l-3.2,7.78h-2.32l11.85-28.44h1.91L392.22,59.2H389.9Zm-.76-1.87-6.52-15.89L372.9,49.55Z"/><path class="cls-2" d="M418.9,45c0,8.92-5.45,14.22-14.67,14.22h-6.75V30.76h6.75C413.45,30.76,418.9,36.06,418.9,45Zm-2.25,0c0-7.77-4.76-12.35-12.88-12.35h-4.16v24.7h4.16C411.89,57.33,416.65,52.76,416.65,45Z"/><path class="cls-2" d="M426,30.76h2.13V59.2H426Z"/><path class="cls-2" d="M437,30.76h2.33L457.28,56l0-25.2h2.06V59.2H457L439,34l0,25.2H437Z"/><path class="cls-2" d="M488.91,44V56.26a19.16,19.16,0,0,1-10.25,3.32c-7.7,0-12.23-5.45-12.23-14.64S471.07,30.38,479,30.38a13.47,13.47,0,0,1,8.85,3.28L486.4,34.8a12.34,12.34,0,0,0-7.4-2.55c-6.48,0-10.33,4.69-10.33,12.66s3.74,12.8,10.07,12.8a16.09,16.09,0,0,0,8.08-2.36V45.9h-7.21V44Z"/><path class="cls-2" d="M493.79,56.19l1.11-1.64a16.73,16.73,0,0,0,9.45,3.16c5.14,0,8.15-2.13,8.15-5.68,0-8.65-18.14-4.57-18.14-14.44,0-4.54,3.7-7.21,10-7.21A18.89,18.89,0,0,1,513.72,33l-1.14,1.64a17,17,0,0,0-8.19-2.4c-4.92,0-7.82,2-7.82,5.3,0,7.93,18.18,3.85,18.18,14.44,0,4.77-3.85,7.59-10.36,7.59A18.5,18.5,0,0,1,493.79,56.19Z"/><path class="cls-2" d="M325.06,69h.7l2.36,7.86,2.17-7.65h.63l2.17,7.65L335.44,69h.71l-2.7,8.89h-.71l-2.13-7.62-2.14,7.62h-.72Z"/><path class="cls-2" d="M344.26,76.72l.32.46a3.89,3.89,0,0,1-2.45.83A2.92,2.92,0,0,1,339,74.77a3,3,0,0,1,3.28-3.25c1.55,0,2.45.73,2.45,2s-1,1.88-2.82,1.88a6.12,6.12,0,0,1-2.25-.41,2.36,2.36,0,0,0,2.5,2.5A3.37,3.37,0,0,0,344.26,76.72Zm-4.58-2.19a7.51,7.51,0,0,0,2.17.35c1.42,0,2.24-.51,2.24-1.39s-.67-1.43-1.81-1.43A2.4,2.4,0,0,0,339.68,74.53Z"/><path class="cls-2" d="M353.57,77l.35-.52a5.23,5.23,0,0,0,3,1c1.6,0,2.55-.66,2.55-1.77,0-2.71-5.68-1.43-5.68-4.52,0-1.42,1.16-2.25,3.13-2.25a6,6,0,0,1,2.93.82l-.36.51a5.37,5.37,0,0,0-2.56-.75c-1.54,0-2.45.62-2.45,1.66,0,2.48,5.69,1.2,5.69,4.52,0,1.48-1.2,2.37-3.24,2.37A5.85,5.85,0,0,1,353.57,77Z"/><path class="cls-2" d="M367.85,77.66a5.11,5.11,0,0,1-1.69.35c-1.18,0-1.86-.58-1.86-1.55V72.2h-1.36v-.56h1.36l0-1.42.58-.17v1.59h2.63v.56h-2.63v4.16c0,.68.5,1.1,1.35,1.1a4.31,4.31,0,0,0,1.42-.28Z"/><path class="cls-2" d="M375.43,71.67l-.13.64a2.64,2.64,0,0,0-1-.18,4.05,4.05,0,0,0-2.35.74v5h-.62V73c0-.39-.38-.76-1-1l.25-.49a2.3,2.3,0,0,1,1.25.88,4.38,4.38,0,0,1,2.59-.87A3.15,3.15,0,0,1,375.43,71.67Z"/><path class="cls-2" d="M378.77,69.45a.4.4,0,0,1,.44-.42.4.4,0,0,1,.43.42.38.38,0,0,1-.43.4A.39.39,0,0,1,378.77,69.45Zm.13,2.19h.62v6.25h-.62Z"/><path class="cls-2" d="M383.17,71.64h.69l2.36,5.53,2.38-5.53h.68l-2.73,6.25h-.66Z"/><path class="cls-2" d="M397.57,76.72l.33.46a3.89,3.89,0,0,1-2.45.83,2.92,2.92,0,0,1-3.12-3.24,3,3,0,0,1,3.28-3.25c1.55,0,2.45.73,2.45,2s-1,1.88-2.82,1.88A6.08,6.08,0,0,1,393,75a2.35,2.35,0,0,0,2.5,2.5A3.34,3.34,0,0,0,397.57,76.72ZM393,74.53a7.51,7.51,0,0,0,2.17.35c1.41,0,2.24-.51,2.24-1.39s-.67-1.43-1.81-1.43A2.39,2.39,0,0,0,393,74.53Z"/><path class="cls-2" d="M408.33,70.2v1.44H411v.56h-2.64v5.69h-.61V72.2h-1.36v-.56h1.36v-1.5a1.68,1.68,0,0,1,1.89-1.79,4.85,4.85,0,0,1,1.66.35l-.17.48a4.26,4.26,0,0,0-1.41-.28A1.22,1.22,0,0,0,408.33,70.2Z"/><path class="cls-2" d="M413.65,74.77c0-2,1.08-3.25,2.94-3.25s3,1.21,3,3.25-1.1,3.24-3,3.24S413.65,76.8,413.65,74.77Zm5.23,0c0-1.7-.86-2.69-2.29-2.69s-2.28,1-2.28,2.69.84,2.69,2.28,2.69S418.88,76.46,418.88,74.77Z"/><path class="cls-2" d="M427.84,71.67l-.13.64a2.61,2.61,0,0,0-1-.18,4,4,0,0,0-2.34.74v5h-.62V73c0-.39-.39-.76-1-1l.25-.49a2.3,2.3,0,0,1,1.25.88,4.38,4.38,0,0,1,2.59-.87A3.15,3.15,0,0,1,427.84,71.67Z"/><path class="cls-2" d="M442.2,77.3v.59h-5.72V69h5.58v.58h-4.91V73h4.26v.57h-4.26v3.7Z"/><path class="cls-2" d="M450.32,77.89l-2.24-2.78-2.24,2.78h-.76l2.58-3.18-2.39-3.07H446l2.07,2.67,2.07-2.67h.74l-2.39,3.07,2.59,3.18Z"/><path class="cls-2" d="M454,74.77c0-2,1.13-3.25,3.06-3.25a3.35,3.35,0,0,1,2,.78l-.4.36a2.74,2.74,0,0,0-1.61-.58c-1.52,0-2.43,1-2.43,2.69s.9,2.69,2.41,2.69a2.74,2.74,0,0,0,1.78-.68l.38.4a3.27,3.27,0,0,1-2.17.83C455.17,78,454,76.8,454,74.77Z"/><path class="cls-2" d="M467.7,76.72l.32.46a3.89,3.89,0,0,1-2.45.83,2.92,2.92,0,0,1-3.12-3.24,3,3,0,0,1,3.28-3.25c1.55,0,2.45.73,2.45,2s-1,1.88-2.82,1.88a6.08,6.08,0,0,1-2.25-.41,2.36,2.36,0,0,0,2.5,2.5A3.37,3.37,0,0,0,467.7,76.72Zm-4.58-2.19a7.51,7.51,0,0,0,2.17.35c1.42,0,2.24-.51,2.24-1.39s-.67-1.43-1.81-1.43A2.4,2.4,0,0,0,463.12,74.53Z"/><path class="cls-2" d="M472.16,76.67v-8.2h.62v8.07c0,.57.43.92,1.15.92a1.06,1.06,0,0,0,.33,0l.08.51a1.84,1.84,0,0,1-.53.09C472.77,78,472.16,77.51,472.16,76.67Z"/><path class="cls-2" d="M477.79,76.67v-8.2h.62v8.07c0,.57.43.92,1.14.92a1.08,1.08,0,0,0,.34,0l.08.51a1.85,1.85,0,0,1-.54.09C478.4,78,477.79,77.51,477.79,76.67Z"/><path class="cls-2" d="M488.11,76.72l.32.46A3.87,3.87,0,0,1,486,78a2.92,2.92,0,0,1-3.12-3.24,3,3,0,0,1,3.27-3.25c1.55,0,2.46.73,2.46,2s-1,1.88-2.83,1.88a6.16,6.16,0,0,1-2.25-.41,2.36,2.36,0,0,0,2.5,2.5A3.35,3.35,0,0,0,488.11,76.72Zm-4.58-2.19a7.51,7.51,0,0,0,2.17.35c1.42,0,2.24-.51,2.24-1.39s-.66-1.43-1.81-1.43A2.4,2.4,0,0,0,483.53,74.53Z"/><path class="cls-2" d="M498,73.35v4.54h-.62V73.45c0-.85-.65-1.37-1.72-1.37a4,4,0,0,0-2.35.75v5.06h-.62V73c0-.39-.38-.76-1-1l.25-.49a2.3,2.3,0,0,1,1.25.88,4.37,4.37,0,0,1,2.6-.87C497.2,71.52,498,72.21,498,73.35Z"/><path class="cls-2" d="M502,74.77c0-2,1.13-3.25,3.06-3.25a3.35,3.35,0,0,1,2,.78l-.4.36a2.73,2.73,0,0,0-1.6-.58c-1.53,0-2.44,1-2.44,2.69s.9,2.69,2.41,2.69a2.74,2.74,0,0,0,1.78-.68l.38.4a3.27,3.27,0,0,1-2.17.83C503.16,78,502,76.8,502,74.77Z"/><path class="cls-2" d="M515.69,76.72l.32.46a3.89,3.89,0,0,1-2.45.83,2.92,2.92,0,0,1-3.12-3.24,3,3,0,0,1,3.28-3.25c1.55,0,2.45.73,2.45,2s-1,1.88-2.82,1.88A6.12,6.12,0,0,1,511.1,75a2.36,2.36,0,0,0,2.5,2.5A3.37,3.37,0,0,0,515.69,76.72Zm-4.58-2.19a7.51,7.51,0,0,0,2.17.35c1.42,0,2.24-.51,2.24-1.39s-.67-1.43-1.81-1.43A2.4,2.4,0,0,0,511.11,74.53Z"/><rect class="cls-3" x="102.02" y="71.81" width="213.61" height="3.82"/></g></g></svg>